<svg xmlns="http://www.w3.org/2000/svg" width="1200" height="520" viewBox="0 0 1200 520">
  <defs>
    <linearGradient id="g" x1="0" x2="1" y1="0" y2="1">
      <stop stop-color="#004574" offset="0"/>
      <stop stop-color="#102235" offset="1"/>
    </linearGradient>
    <linearGradient id="o" x1="0" x2="1">
      <stop stop-color="#ff8a00" offset="0"/>
      <stop stop-color="#ffb13b" offset="1"/>
    </linearGradient>
  </defs>
  <rect width="1200" height="520" rx="34" fill="url(#g)"/>
  <g opacity=".22" fill="none" stroke="#fff" stroke-width="2">
    <path d="M60 420h1080M60 360h1080M60 300h1080M60 240h1080"/>
    <path d="M160 120v330M300 90v360M440 140v310M580 100v350M720 80v370M860 130v320M1000 95v355"/>
  </g>
  <g transform="translate(118 116)">
    <rect x="0" y="168" width="470" height="92" rx="12" fill="#f3f7fb" opacity=".96"/>
    <rect x="35" y="85" width="270" height="128" rx="10" fill="#d9e2ea"/>
    <path d="M35 85 160 20 305 85" fill="none" stroke="url(#o)" stroke-width="34" stroke-linejoin="round"/>
    <rect x="74" y="122" width="72" height="91" fill="#004574" opacity=".92"/>
    <rect x="184" y="118" width="86" height="54" rx="6" fill="#004574" opacity=".92"/>
    <circle cx="93" cy="270" r="48" fill="#102235"/>
    <circle cx="377" cy="270" r="48" fill="#102235"/>
    <circle cx="93" cy="270" r="20" fill="#fff" opacity=".9"/>
    <circle cx="377" cy="270" r="20" fill="#fff" opacity=".9"/>
  </g>
  <g transform="translate(666 110)" fill="#fff">
    <text x="0" y="0" font-family="Arial, sans-serif" font-size="28" font-weight="700" letter-spacing="3" opacity=".85">RUNGOCRAFT</text>
    <text x="0" y="58" font-family="Arial, sans-serif" font-size="48" font-weight="900">Склад-магазин</text>
    <text x="0" y="112" font-family="Arial, sans-serif" font-size="38" font-weight="800" fill="#ffb13b">м. Київ, вул. Куренівська, 15</text>
    <text x="0" y="174" font-family="Arial, sans-serif" font-size="24" opacity=".86">Будматеріали • інструменти • підбір</text>
    <rect x="0" y="218" width="340" height="64" rx="18" fill="url(#o)"/>
    <text x="34" y="260" font-family="Arial, sans-serif" font-size="23" font-weight="900" fill="#102235">Замовити розрахунок</text>
  </g>
</svg>
